<?xml version="1.0" encoding="UTF-8"?><svg id="Layer_1" xmlns="http://www.w3.org/2000/svg" xmlns:xlink="http://www.w3.org/1999/xlink" viewBox="0 0 447.11 423.68"><defs><style>.cls-1{fill:#222;}.cls-2{font-family:Poppins-Thin, Poppins;font-size:54.31px;font-weight:200;letter-spacing:.06em;}.cls-3{fill:none;stroke:url(#linear-gradient);stroke-linecap:round;stroke-miterlimit:10;stroke-width:.45px;}</style><linearGradient id="linear-gradient" x1="0" y1="406.68" x2="447.11" y2="406.68" gradientTransform="translate(0 715.96) scale(1 -1)" gradientUnits="userSpaceOnUse"><stop offset="0" stop-color="#c99a44"/><stop offset=".51" stop-color="#e4c06a"/><stop offset="1" stop-color="#f0e1b2"/></linearGradient></defs><g><line class="cls-3" x1=".22" y1="309.28" x2="446.89" y2="309.28"/><g><g><path d="m53.95,250.3v.69h-18.62v20.69h16.72v.69h-16.72v25.52h20.44v.69h-27.31v-15.17h-15.89l-7.86,15.17h-.99l24.73-48.28h25.5Zm-25.49,32.42v-29.93l-15.56,29.93s15.56,0,15.56,0Z"/><path d="m65.97,250.86c5.33-.37,10.05-.55,14.14-.55,11.36,0,17.04,3.79,17.04,11.38,0,3.22-.78,6.09-2.35,8.62-1.56,2.53-4.25,4.21-8.07,5.04l13.79,23.24h-6.41l-13.52-22.83h-8.9v22.83h-5.73v-47.73h.01Zm14.14.14c-2.67,0-5.47.16-8.41.48v23.59h10.21c6.48-.28,9.73-4.69,9.73-13.24,0-3.49-.97-6.17-2.9-8.04-1.93-1.86-4.81-2.79-8.62-2.79h0Z"/><path d="m108.12,250.99v-.69h12.28v.69h-3.38v46.9h3.38v.69h-12.28v-.69h3.17v-46.9h-3.17Z"/><path d="m129.5,298.59h-.83l20.63-48.29.76-.34,17.38,48.63h-5.86l-5.38-15.17h-20.14l-6.55,15.17h0Zm17.66-40.83l-10.83,24.97h19.66s-8.83-24.97-8.83-24.97Z"/><path class="cls-1" d="m231.58,250.3c.87.87,1.31,2,1.31,3.38,0,1.15-.25,2.32-.76,3.52l-17.66,41.38-.76.34-17.37-48.62h5.86l14.42,40.83,14.69-33.94c.51-1.15.76-2.35.76-3.59s-.34-2.21-1.04-2.9l.55-.41h0Z"/><path class="cls-1" d="m252.72,298.86c-4.85,0-8.79-1.38-11.83-4.14-3.04-2.76-4.55-7.01-4.55-12.76s1.58-10.21,4.72-13.38c3.15-3.17,7.15-4.76,12-4.76s8.79,1.38,11.83,4.14c3.03,2.76,4.55,7.01,4.55,12.76s-1.58,10.21-4.72,13.38c-3.15,3.17-7.15,4.76-12,4.76h0Zm.45-34.49c-3.5,0-6.39,1.55-8.69,4.66-2.3,3.1-3.45,7.43-3.45,12.97s1.06,9.65,3.17,12.31c2.11,2.67,4.92,4,8.42,4s6.39-1.55,8.69-4.66c2.3-3.1,3.45-7.43,3.45-12.97s-1.06-9.64-3.17-12.31c-2.12-2.67-4.92-4-8.42-4Z"/><path class="cls-1" d="m283.45,310.93c-1.47,3.26-3.29,4.9-5.45,4.9-.97,0-2.09-.16-3.38-.48v-.55c1.06.28,2,.41,2.83.41,2.34,0,4.14-1.43,5.38-4.28l5.79-12.35h-.07l-12.83-34.49h4.83l10.69,28.76,10.55-21.86c.55-.97.83-2.11.83-3.45s-.37-2.35-1.1-3.04l.41-.41c.18.09.42.37.72.83s.48.87.55,1.24c.07.37.1.71.1,1.03,0,1.24-.28,2.51-.83,3.79l-13.24,27.59-5.79,12.35h.01Z"/><path class="cls-1" d="m337.66,298.59c-3.13,0-5.27-.6-6.41-1.79-1.06-1.01-1.59-1.89-1.59-2.62v-1.45c-2.25,4.09-5.86,6.14-10.83,6.14-5.79,0-9.08-2.62-9.86-7.86-.09-.55-.14-1.11-.14-1.69s.09-1.21.28-1.9c.18-.69.71-1.45,1.59-2.28,1.75-1.66,5.59-2.67,11.52-3.04,1.47-.14,2.83-.21,4.07-.21s2.37.05,3.38.14v-11.45c-.09-.05-.09-.26,0-.66.09-.39.01-.9-.24-1.52s-.59-1.23-1-1.83-1.15-1.11-2.21-1.55c-1.06-.44-2.44-.66-4.14-.66s-3.69.31-5.97.93-3.94,1.23-5,1.83l-.28-.48c4.09-1.88,8.25-2.83,12.48-2.83,4.74,0,7.86.85,9.38,2.55,1.2,1.33,1.79,2.74,1.79,4.21v23.11c0,1.33.26,2.36.79,3.07s1.07,1.09,1.62,1.14l.76.14h2.14v.55h-2.14,0Zm-17.73-.27c2.44,0,4.63-.84,6.59-2.52s3-3.3,3.14-4.86v-8.35c-1.24-.09-2.5-.14-3.76-.14s-2.52.07-3.76.21c-3.49.41-5.77,1.2-6.83,2.35-1.06,1.15-1.59,2.74-1.59,4.76,0,.37.02.78.07,1.24.41,4.87,2.46,7.31,6.14,7.31h0Z"/><path class="cls-1" d="m345.32,282.58c0-5.98,1.45-10.6,4.35-13.86s7.24-4.9,13.04-4.9c4.28,0,8.62.76,13.04,2.28v33.31c-.05,10.94-4.83,16.42-14.35,16.42-5.24,0-9.73-1.7-13.45-5.1l.48-.41c3.95,3.31,8.28,4.97,12.97,4.97,6.35,0,9.52-5.29,9.52-15.86v-6.83c-.87,1.61-2.32,3.04-4.35,4.28-2.02,1.24-4.41,1.86-7.17,1.86-9.38-.23-14.07-5.61-14.07-16.14v-.02Zm14.13,15.59c3.08,0,5.72-.83,7.93-2.48,2.21-1.66,3.38-3.29,3.52-4.9v-24.35c-3.31-1.38-6.12-2.07-8.42-2.07-4.09,0-7.17,1.6-9.24,4.79-2.07,3.2-3.1,7.67-3.1,13.42,0,10.39,3.1,15.59,9.31,15.59h0Z"/><path class="cls-1" d="m387.67,281.76c0,5.7,1,9.89,3,12.55,2,2.67,4.63,4,7.9,4,4.6,0,8.69-.69,12.28-2.07l.21.48c-3.68,1.43-7.83,2.14-12.45,2.14s-8.38-1.38-11.28-4.14-4.35-7.01-4.35-12.76,1.52-10.21,4.55-13.38c3.03-3.17,6.9-4.76,11.59-4.76,3.77,0,6.94,1.13,9.52,3.38,2.58,2.25,3.86,5.59,3.86,10v.69h-24.62c-.14,1.24-.21,2.53-.21,3.86h0Zm17.59-14.2c-1.66-2.11-3.79-3.17-6.41-3.17s-4.96,1.15-7,3.45c-2.05,2.3-3.34,5.47-3.9,9.52h19.87c-.05-4.41-.9-7.68-2.55-9.79h-.01Z"/><path class="cls-1" d="m439.6,266.51c-.74-.6-1.92-1.1-3.55-1.52-1.63-.41-2.86-.62-3.69-.62h-1.45c-2.48.05-4.28.68-5.38,1.9-1.1,1.22-1.66,2.59-1.66,4.1s.48,2.79,1.45,3.83c.96,1.03,2.17,1.84,3.62,2.41,1.45.58,3.01,1.23,4.69,1.97s3.24,1.48,4.69,2.24,2.66,1.86,3.62,3.31c.97,1.45,1.45,3.25,1.45,5.41s-.76,4-2.28,5.52-3.21,2.53-5.07,3.04c-1.86.5-3.88.76-6.04.76-4.69,0-8.21-1.04-10.55-3.1l.41-.41c.92.87,2.29,1.59,4.1,2.14s3.58.83,5.28.83c2.71,0,4.95-.75,6.72-2.24s2.66-3.36,2.66-5.59-.67-4.02-2-5.38-2.96-2.41-4.86-3.17c-1.91-.76-3.83-1.52-5.76-2.28-1.93-.76-3.56-1.82-4.9-3.17-1.33-1.36-2-2.93-2-4.73s.41-3.25,1.24-4.38,1.93-1.92,3.31-2.38c2.34-.78,4.69-1.17,7.04-1.17,3.95,0,7.04.74,9.24,2.21l-.34.48h0Z"/></g><path d="m331.36,0v3.07h-82.93v92.15h74.47v3.07h-74.47v113.66h91.04v3.07h-121.64v-67.57h-70.77l-35.01,67.57h-4.41L217.79,0h113.57Zm-113.53,144.4V11.09l-69.3,133.31s69.3,0,69.3,0Z"/></g><g><path d="m7.62,333.74c-1.14,0-2.21-.17-3.23-.51-1.01-.34-1.78-.77-2.32-1.28l.4-.44c.5.47,1.22.87,2.14,1.19s1.92.49,2.98.49,1.97-.12,2.66-.37c.69-.25,1.21-.58,1.54-.99.33-.41.5-.87.5-1.38,0-.59-.18-1.06-.53-1.42s-.82-.64-1.41-.85c-.58-.21-1.22-.38-1.91-.52-.69-.14-1.38-.28-2.08-.43s-1.35-.35-1.93-.59-1.05-.57-1.4-1c-.35-.42-.52-.98-.52-1.65,0-.58.18-1.12.55-1.63.37-.5.95-.91,1.73-1.23s1.79-.47,3.02-.47c.84,0,1.67.11,2.49.32.82.21,1.52.5,2.1.86l-.33.5c-.62-.38-1.31-.67-2.06-.85s-1.48-.28-2.17-.28c-1.03,0-1.9.13-2.58.38s-1.19.59-1.52,1.01c-.33.42-.49.88-.49,1.39,0,.6.18,1.08.53,1.44s.82.64,1.41.85c.58.21,1.22.38,1.92.52.69.14,1.39.28,2.08.43.69.15,1.33.35,1.92.6.58.25,1.05.58,1.4.99.35.41.52.95.52,1.62,0,.58-.19,1.12-.57,1.62s-.97.91-1.77,1.22c-.81.31-1.83.46-3.07.46Z"/><path d="m18.38,337.25v-13.17h.71v3.36l-.2,1.46.22,1.46v6.89s-.73,0-.73,0Zm5.68-3.53c-1.03,0-1.97-.2-2.79-.6-.83-.4-1.48-.97-1.96-1.7-.48-.73-.72-1.58-.72-2.54s.24-1.83.72-2.56c.48-.73,1.13-1.3,1.96-1.71.83-.41,1.76-.61,2.79-.61s2.02.21,2.87.63c.85.42,1.52.99,2.02,1.72.49.73.74,1.57.74,2.53s-.25,1.79-.74,2.51c-.5.73-1.17,1.3-2.02,1.71-.85.41-1.81.62-2.87.62Zm-.02-.55c.93,0,1.77-.18,2.52-.54s1.33-.86,1.76-1.52c.43-.65.64-1.4.64-2.23s-.21-1.61-.64-2.25-1.02-1.14-1.76-1.51c-.75-.36-1.59-.54-2.52-.54s-1.79.18-2.53.54c-.74.36-1.32.87-1.75,1.51s-.64,1.39-.64,2.25.21,1.58.64,2.23,1.01,1.16,1.75,1.52c.74.36,1.58.54,2.53.54Z"/><path d="m39.48,333.72c-1.14,0-2.14-.21-3.01-.62s-1.56-.99-2.06-1.73c-.5-.74-.75-1.58-.75-2.51s.23-1.79.7-2.51,1.11-1.3,1.93-1.72,1.75-.63,2.78-.63,1.94.2,2.76.61,1.46.97,1.93,1.69.7,1.55.7,2.48v.17h-10.31v-.5h9.91l-.29.3c0-.8-.2-1.52-.61-2.15-.41-.63-.96-1.13-1.67-1.5s-1.52-.54-2.42-.54-1.71.18-2.42.54-1.27.86-1.67,1.5c-.41.63-.61,1.36-.61,2.17v.11c0,.84.22,1.58.67,2.23s1.05,1.15,1.82,1.51,1.65.54,2.64.54c.75,0,1.47-.12,2.14-.35s1.23-.59,1.67-1.07l.47.41c-.52.52-1.15.91-1.9,1.17-.75.26-1.54.4-2.38.4h-.02Zm-1.53-11.27l3.08-2.09h1.2l-3.39,2.09h-.89Z"/><path d="m54.13,333.72c-1.09,0-2.07-.21-2.94-.62-.86-.41-1.54-.99-2.04-1.72s-.74-1.57-.74-2.52.25-1.79.74-2.52c.49-.73,1.17-1.3,2.04-1.72.86-.41,1.84-.62,2.94-.62.87,0,1.68.14,2.42.42s1.35.69,1.84,1.23l-.55.39c-.43-.5-.96-.87-1.61-1.11-.64-.23-1.34-.35-2.09-.35-.95,0-1.8.18-2.55.54s-1.35.86-1.78,1.51-.65,1.39-.65,2.25.22,1.6.65,2.24,1.03,1.15,1.78,1.51,1.6.54,2.55.54c.75,0,1.45-.12,2.09-.36s1.18-.61,1.61-1.1l.55.37c-.49.55-1.1.97-1.84,1.24s-1.54.41-2.42.41h0Z"/><path d="m63.71,321.57c-.19,0-.36-.06-.51-.18-.15-.12-.22-.26-.22-.41,0-.17.07-.32.22-.43.15-.12.32-.18.51-.18.21,0,.38.06.52.18s.21.25.21.42-.07.3-.21.42c-.14.12-.31.18-.52.18Zm-.35,12.1v-9.59h.73v9.59s-.73,0-.73,0Z"/><path d="m73.71,333.72c-.87,0-1.61-.11-2.23-.33-.61-.22-1.08-.54-1.41-.95-.33-.41-.49-.88-.49-1.41,0-.47.13-.9.4-1.3.27-.4.71-.72,1.32-.96s1.44-.36,2.47-.36h4.46v.5h-4.46c-1.26,0-2.15.2-2.67.59s-.79.89-.79,1.5c0,.68.3,1.22.91,1.62s1.45.6,2.53.6,1.94-.2,2.64-.6c.69-.4,1.22-.97,1.57-1.71l.24.41c-.3.73-.83,1.31-1.6,1.75s-1.74.67-2.9.67v-.02Zm4.29-.06v-2.24l-.02-.33v-3.64c0-.95-.3-1.67-.91-2.16-.61-.49-1.49-.74-2.64-.74-.84,0-1.61.12-2.31.36s-1.29.55-1.8.93l-.4-.44c.55-.43,1.22-.77,2.02-1.03.8-.25,1.63-.38,2.51-.38,1.37,0,2.43.29,3.16.88s1.1,1.44,1.1,2.58v6.21h-.71Z"/><path d="m85.15,333.67v-13.71h.73v13.71h-.73Z"/><path d="m92.82,321.57c-.19,0-.36-.06-.51-.18s-.22-.26-.22-.41c0-.17.07-.32.22-.43.15-.12.32-.18.51-.18.21,0,.38.06.52.18s.21.25.21.42-.07.3-.21.42c-.14.12-.31.18-.52.18Zm-.35,12.1v-9.59h.73v9.59s-.73,0-.73,0Z"/><path d="m102.55,333.72c-.95,0-1.83-.12-2.66-.36s-1.46-.54-1.88-.92l.35-.48c.43.32,1.01.6,1.75.85s1.56.37,2.46.37c1.29,0,2.21-.18,2.78-.55s.85-.85.85-1.44c0-.43-.14-.77-.42-1.02s-.65-.44-1.11-.57-.96-.24-1.52-.32-1.11-.17-1.67-.28c-.56-.1-1.07-.25-1.53-.42-.46-.18-.83-.43-1.11-.75s-.42-.75-.42-1.27c0-.46.15-.87.45-1.26.3-.38.76-.69,1.39-.93s1.41-.36,2.37-.36c.71,0,1.42.09,2.14.27s1.29.42,1.72.71l-.38.48c-.46-.31-.99-.54-1.61-.68s-1.25-.22-1.9-.22c-1.2,0-2.07.19-2.62.57s-.82.85-.82,1.4c0,.44.14.8.42,1.06s.65.46,1.11.6.96.25,1.52.33,1.11.18,1.66.28,1.06.23,1.52.41c.46.17.83.41,1.11.72s.42.73.42,1.26c0,.49-.17.93-.5,1.32s-.82.69-1.46.9-1.45.31-2.43.31h.02Z"/><path d="m109.88,324.62v-.54h6.69v.54h-6.69Zm5.1,9.11c-.95,0-1.67-.22-2.17-.67-.5-.44-.75-1.04-.75-1.79v-9.29h.73v9.2c0,.65.19,1.15.58,1.5.38.35.95.52,1.68.52s1.37-.19,1.86-.57l.38.44c-.28.22-.63.39-1.04.5s-.84.17-1.26.17h-.01Z"/><path d="m126.29,333.72c-1.14,0-2.14-.21-3.01-.62s-1.56-.99-2.06-1.73c-.5-.74-.75-1.58-.75-2.51s.23-1.79.7-2.51,1.11-1.3,1.93-1.72,1.75-.63,2.78-.63,1.94.2,2.76.61c.82.41,1.46.97,1.93,1.69.47.72.7,1.55.7,2.48v.17h-10.31v-.5h9.91l-.29.3c0-.8-.2-1.52-.61-2.15-.41-.63-.96-1.13-1.67-1.5s-1.52-.54-2.42-.54-1.71.18-2.42.54-1.27.86-1.67,1.5c-.41.63-.61,1.36-.61,2.17v.11c0,.84.22,1.58.67,2.23s1.05,1.15,1.82,1.51,1.65.54,2.64.54c.75,0,1.47-.12,2.14-.35.67-.23,1.23-.59,1.67-1.07l.47.41c-.52.52-1.15.91-1.9,1.17-.75.26-1.54.4-2.38.4h-.02Z"/><path d="m139.3,333.72c-.95,0-1.83-.12-2.66-.36s-1.46-.54-1.88-.92l.35-.48c.43.32,1.01.6,1.75.85s1.56.37,2.46.37c1.29,0,2.21-.18,2.78-.55.57-.37.85-.85.85-1.44,0-.43-.14-.77-.42-1.02s-.65-.44-1.11-.57-.96-.24-1.52-.32-1.11-.17-1.67-.28c-.56-.1-1.07-.25-1.53-.42-.46-.18-.83-.43-1.11-.75s-.42-.75-.42-1.27c0-.46.15-.87.45-1.26.3-.38.76-.69,1.39-.93s1.41-.36,2.37-.36c.71,0,1.42.09,2.14.27s1.29.42,1.72.71l-.38.48c-.46-.31-.99-.54-1.61-.68s-1.25-.22-1.9-.22c-1.2,0-2.07.19-2.62.57-.55.38-.82.85-.82,1.4,0,.44.14.8.42,1.06s.65.46,1.11.6.96.25,1.52.33,1.11.18,1.66.28,1.06.23,1.52.41c.46.17.83.41,1.11.72s.42.73.42,1.26c0,.49-.17.93-.5,1.32s-.82.69-1.46.9-1.45.31-2.43.31h.02Z"/><path d="m160.41,333.72c-1.14,0-2.14-.21-3.01-.62s-1.56-.99-2.06-1.73c-.5-.74-.75-1.58-.75-2.51s.23-1.79.7-2.51,1.11-1.3,1.93-1.72,1.75-.63,2.78-.63,1.94.2,2.76.61,1.46.97,1.93,1.69c.47.72.7,1.55.7,2.48v.17h-10.31v-.5h9.91l-.29.3c0-.8-.2-1.52-.61-2.15-.41-.63-.96-1.13-1.67-1.5s-1.52-.54-2.42-.54-1.71.18-2.42.54-1.27.86-1.67,1.5c-.41.63-.61,1.36-.61,2.17v.11c0,.84.22,1.58.67,2.23s1.05,1.15,1.82,1.51,1.65.54,2.64.54c.75,0,1.47-.12,2.14-.35s1.23-.59,1.67-1.07l.47.41c-.52.52-1.15.91-1.9,1.17-.75.26-1.54.4-2.38.4h-.02Z"/><path d="m170.65,333.67v-9.59h.71v2.7l-.09-.17c.35-.8.94-1.43,1.76-1.9.82-.47,1.84-.7,3.05-.7.95,0,1.76.15,2.45.46s1.22.76,1.61,1.36c.38.6.58,1.33.58,2.21v5.63h-.73v-5.6c0-1.15-.35-2.01-1.04-2.6s-1.67-.89-2.93-.89c-.96,0-1.79.16-2.48.48-.7.32-1.23.78-1.6,1.37-.37.59-.55,1.28-.55,2.07v5.17h-.74Z"/><path d="m197.34,333.67l-5.25-9.59h.8l4.99,9.22h-.33l5.01-9.22h.78l-5.25,9.59h-.75Z"/><path d="m211.57,333.72c-1.08,0-2.04-.21-2.89-.62s-1.52-.99-2.02-1.73c-.5-.74-.74-1.58-.74-2.51s.25-1.79.74-2.51c.49-.73,1.17-1.3,2.02-1.72s1.81-.63,2.89-.63,2.05.21,2.9.63,1.53.99,2.02,1.72.73,1.56.73,2.51-.24,1.77-.73,2.51c-.49.74-1.16,1.32-2.02,1.73s-1.83.62-2.9.62Zm0-.55c.95,0,1.79-.18,2.54-.54s1.33-.87,1.75-1.52c.42-.65.63-1.4.63-2.24s-.21-1.6-.63-2.25-1.01-1.15-1.75-1.51c-.75-.36-1.59-.54-2.54-.54s-1.77.18-2.5.54c-.74.36-1.33.86-1.76,1.51s-.65,1.39-.65,2.25.22,1.58.65,2.24c.44.65,1.02,1.16,1.76,1.52.74.36,1.57.54,2.5.54Z"/><path d="m221.66,337.31c-.52,0-1-.07-1.44-.21s-.82-.35-1.13-.64l.42-.48c.31.27.64.47.98.6s.73.19,1.17.19c.56,0,1.06-.13,1.49-.39.43-.26.83-.73,1.2-1.42l.84-1.51.11-.15,5.01-9.22h.78l-6.03,11.03c-.3.54-.62.98-.96,1.3s-.72.56-1.12.69c-.4.13-.83.2-1.31.2h0Zm3.55-3.41l-5.37-9.81h.8l4.99,9.18-.42.63h0Z"/><path d="m237.99,333.72c-.87,0-1.62-.11-2.23-.33s-1.08-.54-1.41-.95c-.33-.41-.49-.88-.49-1.41,0-.47.13-.9.4-1.3.27-.4.71-.72,1.32-.96s1.44-.36,2.47-.36h4.46v.5h-4.46c-1.26,0-2.15.2-2.67.59s-.79.89-.79,1.5c0,.68.3,1.22.91,1.62s1.45.6,2.53.6,1.94-.2,2.64-.6,1.22-.97,1.57-1.71l.24.41c-.3.73-.83,1.31-1.6,1.75s-1.74.67-2.9.67v-.02Zm4.29-.06v-2.24l-.02-.33v-3.64c0-.95-.3-1.67-.91-2.16-.61-.49-1.49-.74-2.64-.74-.84,0-1.61.12-2.31.36s-1.29.55-1.79.93l-.4-.44c.55-.43,1.22-.77,2.02-1.03.8-.25,1.63-.38,2.5-.38,1.37,0,2.43.29,3.16.88.73.58,1.1,1.44,1.1,2.58v6.21h-.71Z"/><path d="m253.82,333.33c-1.08,0-2.05-.2-2.9-.6-.86-.4-1.54-.95-2.04-1.65-.5-.7-.75-1.51-.75-2.42s.25-1.72.75-2.42,1.18-1.25,2.04-1.64,1.83-.59,2.9-.59,2.01.19,2.84.58c.83.39,1.49.93,1.97,1.63.49.7.73,1.51.73,2.45s-.24,1.75-.73,2.46c-.49.7-1.15,1.25-1.97,1.64-.83.39-1.77.58-2.84.58v-.02Zm.02-.55c.98,0,1.84-.17,2.58-.52.75-.34,1.33-.83,1.76-1.46s.64-1.34.64-2.14-.21-1.52-.64-2.13c-.43-.61-1.02-1.09-1.76-1.43-.75-.34-1.61-.52-2.58-.52s-1.8.17-2.55.52c-.75.34-1.35.82-1.79,1.43-.44.61-.65,1.32-.65,2.13s.22,1.51.65,2.14,1.03,1.11,1.79,1.46c.75.35,1.6.52,2.55.52h0Zm.29,4.53c-1.03,0-2.01-.14-2.94-.42s-1.67-.66-2.23-1.14l.42-.46c.59.47,1.29.83,2.11,1.08.81.25,1.68.38,2.62.38,1.61,0,2.8-.32,3.57-.95s1.15-1.63,1.15-2.98v-2.9l.22-1.26-.2-1.26v-3.33h.71v8.66c0,1.56-.45,2.72-1.35,3.46s-2.26,1.11-4.08,1.11h0Z"/><path d="m270.67,333.72c-1.14,0-2.14-.21-3.02-.62-.87-.41-1.56-.99-2.06-1.73-.5-.74-.75-1.58-.75-2.51s.23-1.79.7-2.51c.47-.73,1.11-1.3,1.93-1.72s1.75-.63,2.78-.63,1.94.2,2.76.61,1.46.97,1.93,1.69.7,1.55.7,2.48v.17h-10.31v-.5h9.91l-.29.3c0-.8-.2-1.52-.61-2.15-.41-.63-.96-1.13-1.67-1.5-.71-.36-1.52-.54-2.42-.54s-1.71.18-2.42.54-1.27.86-1.67,1.5c-.41.63-.61,1.36-.61,2.17v.11c0,.84.22,1.58.67,2.23s1.05,1.15,1.82,1.51,1.65.54,2.64.54c.75,0,1.47-.12,2.14-.35s1.23-.59,1.67-1.07l.47.41c-.52.52-1.15.91-1.9,1.17-.75.26-1.54.4-2.38.4h-.01Z"/><path d="m283.68,333.72c-.95,0-1.83-.12-2.66-.36-.83-.24-1.46-.54-1.88-.92l.35-.48c.43.32,1.01.6,1.75.85s1.56.37,2.46.37c1.29,0,2.21-.18,2.78-.55s.85-.85.85-1.44c0-.43-.14-.77-.42-1.02s-.65-.44-1.11-.57-.96-.24-1.52-.32c-.55-.08-1.11-.17-1.67-.28-.56-.1-1.07-.25-1.53-.42-.46-.18-.83-.43-1.11-.75s-.42-.75-.42-1.27c0-.46.15-.87.45-1.26s.77-.69,1.39-.93c.62-.24,1.41-.36,2.37-.36.71,0,1.42.09,2.14.27s1.29.42,1.72.71l-.38.48c-.46-.31-.99-.54-1.61-.68s-1.25-.22-1.9-.22c-1.2,0-2.07.19-2.62.57s-.82.85-.82,1.4c0,.44.14.8.42,1.06.28.26.65.46,1.11.6s.96.25,1.52.33c.55.09,1.11.18,1.66.28.55.1,1.06.23,1.52.41.46.17.83.41,1.11.72s.42.73.42,1.26c0,.49-.17.93-.5,1.32s-.82.69-1.46.9c-.64.21-1.45.31-2.43.31h.02Z"/><path d="m304.79,333.72c-1.14,0-2.14-.21-3.02-.62-.87-.41-1.56-.99-2.06-1.73-.5-.74-.75-1.58-.75-2.51s.23-1.79.7-2.51c.47-.73,1.11-1.3,1.93-1.72s1.75-.63,2.78-.63,1.94.2,2.76.61,1.46.97,1.93,1.69.7,1.55.7,2.48v.17h-10.31v-.5h9.91l-.29.3c0-.8-.2-1.52-.61-2.15-.41-.63-.96-1.13-1.67-1.5-.71-.36-1.52-.54-2.42-.54s-1.71.18-2.42.54-1.27.86-1.67,1.5c-.41.63-.61,1.36-.61,2.17v.11c0,.84.22,1.58.67,2.23s1.05,1.15,1.82,1.51,1.65.54,2.64.54c.75,0,1.47-.12,2.14-.35s1.23-.59,1.67-1.07l.47.41c-.52.52-1.15.91-1.9,1.17-.75.26-1.54.4-2.38.4h-.01Z"/><path d="m313.05,324.62v-.54h6.7v.54h-6.7Zm5.1,9.11c-.95,0-1.67-.22-2.17-.67-.5-.44-.75-1.04-.75-1.79v-9.29h.73v9.2c0,.65.19,1.15.58,1.5.38.35.95.52,1.69.52s1.37-.19,1.86-.57l.38.44c-.28.22-.63.39-1.04.5s-.83.17-1.26.17h-.02Z"/><path d="m337.06,333.72c-1.09,0-2.07-.21-2.94-.62-.86-.41-1.54-.99-2.04-1.72s-.74-1.57-.74-2.52.25-1.79.74-2.52c.5-.73,1.17-1.3,2.04-1.72.87-.41,1.84-.62,2.94-.62.87,0,1.68.14,2.42.42s1.35.69,1.84,1.23l-.55.39c-.43-.5-.96-.87-1.61-1.11-.64-.23-1.34-.35-2.09-.35-.95,0-1.8.18-2.55.54s-1.35.86-1.79,1.51-.65,1.39-.65,2.25.22,1.6.65,2.24,1.03,1.15,1.79,1.51c.75.36,1.6.54,2.55.54.75,0,1.45-.12,2.09-.36.64-.24,1.18-.61,1.61-1.1l.55.37c-.49.55-1.1.97-1.84,1.24s-1.54.41-2.42.41h0Z"/><path d="m346.48,333.67v-9.59h.71v2.64l-.07-.17c.31-.8.85-1.43,1.63-1.88s1.75-.67,2.92-.67v.61h-.2c-1.33,0-2.37.35-3.12,1.05-.75.7-1.13,1.67-1.13,2.9v5.1h-.74Z"/><path d="m360.78,333.72c-1.08,0-2.04-.21-2.89-.62s-1.52-.99-2.02-1.73c-.5-.74-.74-1.58-.74-2.51s.25-1.79.74-2.51,1.17-1.3,2.02-1.72c.85-.42,1.81-.63,2.89-.63s2.05.21,2.9.63c.86.42,1.53.99,2.02,1.72s.73,1.56.73,2.51-.24,1.77-.73,2.51c-.49.74-1.16,1.32-2.02,1.73s-1.83.62-2.9.62Zm0-.55c.95,0,1.79-.18,2.54-.54s1.33-.87,1.75-1.52c.42-.65.63-1.4.63-2.24s-.21-1.6-.63-2.25-1-1.15-1.75-1.51-1.59-.54-2.54-.54-1.77.18-2.5.54c-.74.36-1.33.86-1.76,1.51s-.65,1.39-.65,2.25.22,1.58.65,2.24c.44.65,1.02,1.16,1.76,1.52.74.36,1.57.54,2.5.54Z"/><path d="m372.06,321.57c-.19,0-.36-.06-.51-.18-.15-.12-.22-.26-.22-.41,0-.17.07-.32.22-.43.15-.12.32-.18.51-.18.21,0,.38.06.52.18s.21.25.21.42-.07.3-.21.42c-.14.12-.31.18-.52.18Zm-.35,12.1v-9.59h.73v9.59s-.73,0-.73,0Z"/><path d="m381.8,333.72c-.95,0-1.83-.12-2.66-.36-.83-.24-1.46-.54-1.88-.92l.35-.48c.43.32,1.01.6,1.75.85s1.56.37,2.46.37c1.29,0,2.21-.18,2.78-.55s.85-.85.85-1.44c0-.43-.14-.77-.42-1.02s-.65-.44-1.11-.57-.96-.24-1.52-.32c-.55-.08-1.11-.17-1.67-.28-.56-.1-1.07-.25-1.53-.42-.46-.18-.83-.43-1.11-.75s-.42-.75-.42-1.27c0-.46.15-.87.45-1.26s.77-.69,1.39-.93c.62-.24,1.41-.36,2.37-.36.71,0,1.42.09,2.14.27s1.29.42,1.72.71l-.38.48c-.46-.31-.99-.54-1.61-.68s-1.25-.22-1.9-.22c-1.2,0-2.07.19-2.62.57s-.82.85-.82,1.4c0,.44.14.8.42,1.06.28.26.65.46,1.11.6s.96.25,1.52.33c.55.09,1.11.18,1.66.28.55.1,1.06.23,1.52.41.46.17.83.41,1.11.72s.42.73.42,1.26c0,.49-.17.93-.5,1.32s-.82.69-1.46.9c-.64.21-1.45.31-2.43.31h.02Z"/><path d="m391.46,321.57c-.19,0-.36-.06-.51-.18-.15-.12-.22-.26-.22-.41,0-.17.07-.32.22-.43.15-.12.32-.18.51-.18.21,0,.38.06.52.18s.21.25.21.42-.07.3-.21.42c-.14.12-.31.18-.52.18Zm-.35,12.1v-9.59h.73v9.59s-.73,0-.73,0Z"/><path d="m402.94,333.72c-1.14,0-2.14-.21-3.02-.62-.87-.41-1.56-.99-2.06-1.73-.5-.74-.75-1.58-.75-2.51s.23-1.79.7-2.51c.47-.73,1.11-1.3,1.93-1.72s1.75-.63,2.78-.63,1.94.2,2.76.61,1.46.97,1.93,1.69.7,1.55.7,2.48v.17h-10.31v-.5h9.91l-.29.3c0-.8-.2-1.52-.61-2.15-.41-.63-.96-1.13-1.67-1.5-.71-.36-1.52-.54-2.42-.54s-1.71.18-2.42.54-1.27.86-1.67,1.5c-.41.63-.61,1.36-.61,2.17v.11c0,.84.22,1.58.67,2.23s1.05,1.15,1.82,1.51,1.65.54,2.64.54c.75,0,1.47-.12,2.14-.35s1.23-.59,1.67-1.07l.47.41c-.52.52-1.15.91-1.9,1.17-.75.26-1.54.4-2.38.4h-.01Zm-.2-11.27l-3.39-2.09h1.2l3.08,2.09h-.89,0Z"/><path d="m413.19,333.67v-9.59h.71v2.64l-.07-.17c.31-.8.85-1.43,1.63-1.88s1.75-.67,2.92-.67v.61h-.2c-1.33,0-2.37.35-3.12,1.05-.75.7-1.13,1.67-1.13,2.9v5.1h-.74Z"/><path d="m427.66,333.72c-1.14,0-2.14-.21-3.02-.62-.87-.41-1.56-.99-2.06-1.73-.5-.74-.75-1.58-.75-2.51s.23-1.79.7-2.51c.47-.73,1.11-1.3,1.93-1.72s1.75-.63,2.78-.63,1.94.2,2.76.61,1.46.97,1.93,1.69.7,1.55.7,2.48v.17h-10.31v-.5h9.91l-.29.3c0-.8-.2-1.52-.61-2.15-.41-.63-.96-1.13-1.67-1.5-.71-.36-1.52-.54-2.42-.54s-1.71.18-2.42.54-1.27.86-1.67,1.5c-.41.63-.61,1.36-.61,2.17v.11c0,.84.22,1.58.67,2.23s1.05,1.15,1.82,1.51,1.65.54,2.64.54c.75,0,1.47-.12,2.14-.35s1.23-.59,1.67-1.07l.47.41c-.52.52-1.15.91-1.9,1.17-.75.26-1.54.4-2.38.4h-.01Z"/><path d="m440.67,333.72c-.95,0-1.83-.12-2.66-.36-.83-.24-1.46-.54-1.88-.92l.35-.48c.43.32,1.01.6,1.75.85s1.56.37,2.46.37c1.29,0,2.21-.18,2.78-.55s.85-.85.85-1.44c0-.43-.14-.77-.42-1.02s-.65-.44-1.11-.57-.96-.24-1.52-.32c-.55-.08-1.11-.17-1.67-.28-.56-.1-1.07-.25-1.53-.42-.46-.18-.83-.43-1.11-.75s-.42-.75-.42-1.27c0-.46.15-.87.45-1.26s.77-.69,1.39-.93c.62-.24,1.41-.36,2.37-.36.71,0,1.42.09,2.14.27s1.29.42,1.72.71l-.38.48c-.46-.31-.99-.54-1.61-.68s-1.25-.22-1.9-.22c-1.2,0-2.07.19-2.62.57s-.82.85-.82,1.4c0,.44.14.8.42,1.06.28.26.65.46,1.11.6s.96.25,1.52.33c.55.09,1.11.18,1.66.28.55.1,1.06.23,1.52.41.46.17.83.41,1.11.72s.42.73.42,1.26c0,.49-.17.93-.5,1.32s-.82.69-1.46.9c-.64.21-1.45.31-2.43.31h.02Z"/></g></g><text class="cls-2" transform="translate(4.8 394.19)"><tspan x="0" y="0">1 888 460-3388</tspan></text></svg>