<?xml version="1.0" encoding="UTF-8"?><svg id="Layer_1" xmlns="http://www.w3.org/2000/svg" xmlns:xlink="http://www.w3.org/1999/xlink" viewBox="0 0 408.84 79.78"><defs><style>.cls-1{fill:none;stroke:url(#linear-gradient);stroke-linecap:round;}.cls-1,.cls-2{stroke-miterlimit:10;}.cls-3,.cls-2{fill:#fff;}.cls-2{stroke:#fff;}</style><linearGradient id="linear-gradient" x1="101.16" y1="42.41" x2="408.84" y2="42.41" gradientUnits="userSpaceOnUse"><stop offset="0" stop-color="#c99a44"/><stop offset=".51" stop-color="#e4c06a"/><stop offset="1" stop-color="#f0e1b2"/></linearGradient></defs><path class="cls-3" d="m52.93,76.96v-34.47h25.07v-4.51h-25.09v-5.54h.02V3.5h29.85V.68h-42.24L0,79.78h3.51l12.6-24.32h24.09v24.32h45.49v-2.82h-32.77Zm-12.72-24.32h-22.68L40.21,9.02v43.62Z"/><g><line class="cls-1" x1="101.66" y1="42.41" x2="408.34" y2="42.41"/><g><path class="cls-2" d="m137.86.92v.47h-12.79v14.21h11.48v.47h-11.48v17.52h14.04v.47h-18.75v-10.42h-10.91l-5.4,10.42h-.68L120.36.92h17.5Zm-17.5,22.26V2.62l-10.68,20.55h10.68Z"/><path class="cls-2" d="m146.12,1.3c3.66-.25,6.9-.38,9.71-.38,7.8,0,11.7,2.6,11.7,7.81,0,2.21-.54,4.18-1.61,5.92-1.07,1.74-2.92,2.89-5.54,3.46l9.47,15.96h-4.4l-9.28-15.68h-6.11v15.68h-3.93V1.3Zm9.71.09c-1.83,0-3.76.11-5.78.33v16.2h7.01c4.45-.19,6.68-3.22,6.68-9.09,0-2.4-.66-4.24-1.99-5.52s-3.3-1.92-5.92-1.92Z"/><path class="cls-2" d="m175.05,1.39v-.47h8.43v.47h-2.32v32.2h2.32v.47h-8.43v-.47h2.18V1.39h-2.18Z"/><path class="cls-2" d="m189.74,34.07h-.57L203.33.92l.52-.24,11.93,33.39h-4.03l-3.69-10.42h-13.83l-4.5,10.42Zm12.12-28.04l-7.44,17.14h13.5l-6.06-17.14Z"/><path class="cls-2" d="m259.83.92c.6.6.9,1.37.9,2.32,0,.79-.17,1.59-.52,2.42l-12.12,28.42-.52.24L235.63.92h4.03l9.9,28.04,10.09-23.3c.35-.79.52-1.61.52-2.46s-.24-1.52-.71-1.99l.38-.28Z"/><path class="cls-2" d="m274.34,34.26c-3.33,0-6.04-.95-8.12-2.84-2.08-1.89-3.12-4.81-3.12-8.76s1.08-7.01,3.24-9.19c2.16-2.18,4.91-3.27,8.24-3.27s6.04.95,8.12,2.84c2.08,1.89,3.12,4.81,3.12,8.76s-1.08,7.01-3.24,9.19c-2.16,2.18-4.91,3.27-8.24,3.27Zm.31-23.68c-2.4,0-4.39,1.07-5.97,3.2-1.58,2.13-2.37,5.1-2.37,8.9s.73,6.62,2.18,8.45c1.45,1.83,3.38,2.75,5.78,2.75s4.39-1.07,5.97-3.2c1.58-2.13,2.37-5.1,2.37-8.9s-.73-6.62-2.18-8.45c-1.45-1.83-3.38-2.75-5.78-2.75Z"/><path class="cls-2" d="m295.44,42.55c-1.01,2.24-2.26,3.36-3.74,3.36-.66,0-1.44-.11-2.32-.33v-.38c.73.19,1.37.28,1.94.28,1.61,0,2.84-.98,3.69-2.94l3.98-8.48h-.05l-8.81-23.68h3.32l7.34,19.75,7.25-15.01c.38-.66.57-1.45.57-2.37s-.25-1.61-.76-2.08l.28-.28c.13.06.29.25.5.57.2.32.33.6.38.85.05.25.07.49.07.71,0,.85-.19,1.72-.57,2.6l-9.09,18.94-3.98,8.48Z"/><path class="cls-2" d="m332.66,34.07c-2.15,0-3.62-.41-4.4-1.23-.73-.69-1.09-1.29-1.09-1.8v-.99c-1.55,2.81-4.03,4.21-7.44,4.21-3.98,0-6.24-1.8-6.77-5.4-.06-.38-.09-.77-.09-1.16s.06-.83.19-1.3c.13-.47.49-.99,1.09-1.56,1.2-1.14,3.84-1.83,7.91-2.08,1.01-.09,1.94-.14,2.79-.14s1.62.03,2.32.09v-7.86c-.06-.03-.06-.18,0-.45.06-.27,0-.62-.17-1.04-.17-.43-.4-.84-.69-1.25-.28-.41-.79-.77-1.52-1.07-.73-.3-1.67-.45-2.84-.45s-2.53.21-4.1.64c-1.56.43-2.71.85-3.43,1.25l-.19-.33c2.81-1.29,5.67-1.94,8.57-1.94,3.25,0,5.4.58,6.44,1.75.82.92,1.23,1.88,1.23,2.89v15.87c0,.92.18,1.62.54,2.11.36.49.73.75,1.11.78l.52.09h1.47v.38h-1.47Zm-12.17-.19c1.67,0,3.18-.58,4.52-1.73,1.34-1.15,2.06-2.27,2.16-3.34v-5.73c-.85-.06-1.71-.09-2.58-.09s-1.73.05-2.58.14c-2.4.28-3.96.82-4.69,1.61-.73.79-1.09,1.88-1.09,3.27,0,.25.02.54.05.85.28,3.35,1.69,5.02,4.21,5.02Z"/><path class="cls-2" d="m337.92,23.08c0-4.1,1-7.28,2.98-9.52,1.99-2.24,4.97-3.36,8.95-3.36,2.94,0,5.92.52,8.95,1.56v22.87c-.03,7.51-3.32,11.27-9.85,11.27-3.6,0-6.68-1.17-9.24-3.5l.33-.28c2.71,2.27,5.68,3.41,8.9,3.41,4.36,0,6.54-3.63,6.54-10.89v-4.69c-.6,1.11-1.59,2.08-2.98,2.94-1.39.85-3.03,1.28-4.93,1.28-6.44-.16-9.66-3.85-9.66-11.08Zm9.71,10.7c2.11,0,3.93-.57,5.45-1.71,1.52-1.14,2.32-2.26,2.42-3.36V12c-2.27-.95-4.2-1.42-5.78-1.42-2.81,0-4.93,1.1-6.35,3.29-1.42,2.19-2.13,5.26-2.13,9.21,0,7.14,2.13,10.7,6.39,10.7Z"/><path class="cls-2" d="m367,22.51c0,3.92.69,6.79,2.06,8.62,1.37,1.83,3.18,2.75,5.42,2.75,3.16,0,5.97-.47,8.43-1.42l.14.33c-2.53.98-5.38,1.47-8.55,1.47s-5.75-.95-7.74-2.84c-1.99-1.89-2.98-4.81-2.98-8.76s1.04-7.01,3.12-9.19c2.08-2.18,4.74-3.27,7.96-3.27,2.59,0,4.77.77,6.54,2.32,1.77,1.55,2.65,3.84,2.65,6.87v.47h-16.91c-.09.85-.14,1.74-.14,2.65Zm12.08-9.76c-1.14-1.45-2.6-2.18-4.4-2.18s-3.4.79-4.81,2.37c-1.41,1.58-2.3,3.76-2.68,6.54h13.64c-.03-3.03-.62-5.27-1.75-6.73Z"/><path class="cls-2" d="m402.66,12.05c-.5-.41-1.32-.76-2.44-1.04-1.12-.28-1.97-.43-2.53-.43h-.99c-1.71.03-2.94.47-3.69,1.3-.76.84-1.14,1.78-1.14,2.82s.33,1.92,1,2.63,1.49,1.26,2.49,1.66c.99.4,2.07.84,3.22,1.35,1.15.51,2.23,1.02,3.22,1.54,1,.52,1.82,1.28,2.49,2.27.66.99,1,2.23,1,3.72s-.52,2.75-1.56,3.79c-1.04,1.04-2.2,1.74-3.48,2.08-1.28.35-2.66.52-4.14.52-3.22,0-5.64-.71-7.25-2.13l.28-.28c.63.6,1.57,1.09,2.82,1.47s2.46.57,3.62.57c1.86,0,3.4-.51,4.62-1.54,1.22-1.03,1.82-2.3,1.82-3.84s-.46-2.76-1.37-3.69c-.92-.93-2.03-1.66-3.34-2.18-1.31-.52-2.63-1.04-3.95-1.56s-2.45-1.25-3.36-2.18c-.92-.93-1.37-2.01-1.37-3.24s.28-2.23.85-3.01c.57-.77,1.33-1.32,2.27-1.63,1.61-.54,3.22-.81,4.83-.81,2.71,0,4.83.51,6.35,1.52l-.24.33Z"/></g><g><path class="cls-3" d="m115.91,77.74h-9.81c-.01-.13-.02-.24-.02-.32,0-.24.05-.41.15-.5.1-.09.41-.19.94-.29.83-.17,1.5-.38,2.01-.62.14-.31.21-.61.21-.88v-1.33c0-.16.02-.88.06-2.16.01-.49.03-2.58.04-6.3l.04-5.03-.04-2.93c0-.43.01-1.78.04-4.05-3.24,2.31-5.02,3.47-5.33,3.47-.11,0-.24-.06-.36-.18-.13-.12-.19-.24-.19-.35,0-.14.05-.26.15-.34.2-.19.68-.49,1.44-.92.11-.06.61-.44,1.48-1.16,1.39-1.16,2.4-2.06,3.04-2.72.64-.66,1.04-1.03,1.18-1.11.29-.01.51-.02.66-.02.37,0,.6.06.7.18.09.12.14.56.14,1.32l-.15,19.1v1.89c0,.46,0,.92-.02,1.38-.01.46-.02.8-.02,1.02,0,.51.06.85.19,1.01.09.1.35.23.79.39l1.46.3c.63.16.97.27,1.03.32.14.13.21.32.21.59l-.02.27Z"/><path class="cls-3" d="m140.16,64.09c-1.39-.74-2.33-1.33-2.83-1.78-.71-.61-1.31-1.41-1.79-2.38-.48-.97-.72-1.96-.72-2.98,0-1.77.7-3.37,2.11-4.81,1.41-1.43,3.13-2.15,5.17-2.15,2.3,0,4.12.61,5.46,1.82,1.34,1.21,2.01,2.69,2.01,4.43,0,.97-.2,1.86-.6,2.66-.4.8-.99,1.52-1.78,2.16-.53.44-1.44.99-2.72,1.65,1.96,1.04,3.12,1.71,3.49,2.01.77.6,1.42,1.39,1.95,2.38.53.99.79,2.08.79,3.28,0,2.24-.77,4.13-2.32,5.68-1.55,1.54-3.52,2.31-5.92,2.31s-4.44-.67-5.9-2.02c-1.46-1.35-2.2-3.02-2.2-5,0-1.13.19-2.15.58-3.07.39-.92.99-1.71,1.8-2.37.63-.5,1.76-1.11,3.41-1.82Zm1.05.47c-1.03.54-1.75,1.02-2.16,1.44-.63.6-1.12,1.31-1.48,2.14-.36.83-.54,1.97-.54,3.43,0,1.53.34,2.73,1.01,3.6,1.11,1.44,2.57,2.16,4.37,2.16,1.64,0,2.99-.52,4.04-1.56,1.05-1.04,1.57-2.38,1.57-4.03,0-1.78-.53-3.2-1.6-4.24-1.06-1.04-2.8-2.02-5.22-2.93Zm2.31-2.34c1.2-.66,2.04-1.33,2.51-2.04.77-1.16,1.16-2.47,1.16-3.94,0-1.14-.23-2.12-.68-2.95-.46-.82-1.07-1.41-1.83-1.77-.76-.36-1.59-.54-2.47-.54-1.41,0-2.57.49-3.48,1.46-.91.97-1.37,2.16-1.37,3.58,0,.83.12,1.52.36,2.07.24.55.62,1.06,1.15,1.53.34.31,1.14.88,2.39,1.69.19.11.64.29,1.35.54.21.07.52.19.92.36Z"/><path class="cls-3" d="m165.12,64.09c-1.39-.74-2.33-1.33-2.83-1.78-.71-.61-1.31-1.41-1.79-2.38-.48-.97-.72-1.96-.72-2.98,0-1.77.7-3.37,2.11-4.81,1.41-1.43,3.13-2.15,5.17-2.15,2.3,0,4.12.61,5.46,1.82,1.34,1.21,2.01,2.69,2.01,4.43,0,.97-.2,1.86-.6,2.66-.4.8-.99,1.52-1.78,2.16-.53.44-1.44.99-2.72,1.65,1.96,1.04,3.12,1.71,3.49,2.01.77.6,1.42,1.39,1.95,2.38.53.99.79,2.08.79,3.28,0,2.24-.77,4.13-2.32,5.68-1.55,1.54-3.52,2.31-5.92,2.31s-4.44-.67-5.9-2.02c-1.46-1.35-2.2-3.02-2.2-5,0-1.13.19-2.15.58-3.07.39-.92.99-1.71,1.8-2.37.63-.5,1.76-1.11,3.41-1.82Zm1.05.47c-1.03.54-1.75,1.02-2.16,1.44-.63.6-1.12,1.31-1.48,2.14-.36.83-.54,1.97-.54,3.43,0,1.53.34,2.73,1.01,3.6,1.11,1.44,2.57,2.16,4.37,2.16,1.64,0,2.99-.52,4.04-1.56,1.05-1.04,1.57-2.38,1.57-4.03,0-1.78-.53-3.2-1.6-4.24-1.06-1.04-2.8-2.02-5.22-2.93Zm2.31-2.34c1.2-.66,2.04-1.33,2.51-2.04.77-1.16,1.16-2.47,1.16-3.94,0-1.14-.23-2.12-.68-2.95-.46-.82-1.07-1.41-1.83-1.77-.76-.36-1.59-.54-2.47-.54-1.41,0-2.57.49-3.48,1.46-.91.97-1.37,2.16-1.37,3.58,0,.83.12,1.52.36,2.07.24.55.62,1.06,1.15,1.53.34.31,1.14.88,2.39,1.69.19.11.64.29,1.35.54.21.07.52.19.92.36Z"/><path class="cls-3" d="m190.07,64.09c-1.39-.74-2.33-1.33-2.83-1.78-.71-.61-1.31-1.41-1.79-2.38-.48-.97-.72-1.96-.72-2.98,0-1.77.7-3.37,2.11-4.81,1.41-1.43,3.13-2.15,5.17-2.15,2.3,0,4.12.61,5.46,1.82,1.34,1.21,2.01,2.69,2.01,4.43,0,.97-.2,1.86-.6,2.66-.4.8-.99,1.52-1.78,2.16-.53.44-1.44.99-2.72,1.65,1.96,1.04,3.12,1.71,3.49,2.01.77.6,1.42,1.39,1.95,2.38s.79,2.08.79,3.28c0,2.24-.77,4.13-2.32,5.68-1.55,1.54-3.52,2.31-5.92,2.31s-4.44-.67-5.9-2.02c-1.46-1.35-2.2-3.02-2.2-5,0-1.13.19-2.15.58-3.07.39-.92.99-1.71,1.8-2.37.63-.5,1.76-1.11,3.41-1.82Zm1.05.47c-1.03.54-1.75,1.02-2.16,1.44-.63.6-1.12,1.31-1.48,2.14-.36.83-.54,1.97-.54,3.43,0,1.53.34,2.73,1.01,3.6,1.11,1.44,2.57,2.16,4.37,2.16,1.64,0,2.99-.52,4.04-1.56,1.05-1.04,1.57-2.38,1.57-4.03,0-1.78-.53-3.2-1.6-4.24-1.06-1.04-2.8-2.02-5.22-2.93Zm2.31-2.34c1.2-.66,2.04-1.33,2.51-2.04.77-1.16,1.16-2.47,1.16-3.94,0-1.14-.23-2.12-.68-2.95-.46-.82-1.07-1.41-1.83-1.77-.76-.36-1.59-.54-2.47-.54-1.41,0-2.57.49-3.48,1.46-.91.97-1.37,2.16-1.37,3.58,0,.83.12,1.52.36,2.07.24.55.62,1.06,1.15,1.53.34.31,1.14.88,2.39,1.69.19.11.64.29,1.35.54.21.07.52.19.92.36Z"/><path class="cls-3" d="m232.73,49.85h1c-.01.44-.02.71-.02.79l.04,3.15-.11,2.83.09,3.15v2.49l.02,3.38c0,.53,0,1.33-.02,2.4l.45.02h1.51l1.45.02,1.19-.04c.03.44.04.77.04.99s-.01.54-.04.99c-.88.04-1.36.06-1.43.06l-1.07-.02h-.85c-.23,0-.65-.01-1.26-.04-.03,2.03-.03,4.72,0,8.08-.09.09-.18.14-.28.17l-1.34.04c-.29,0-.73-.01-1.31-.04.03-1.69.04-2.89.04-3.62,0-.64-.01-1.23-.04-1.76-.04-.97-.06-1.53-.06-1.67,0-.26.02-.66.06-1.2-.6.07-1.07.11-1.4.11-.17,0-.36,0-.58-.02-1.44-.07-2.26-.11-2.45-.11s-.64.05-1.37.15l-2.2-.13-1.2.06-.81-.13-1.03.21-.19-.15c-.03-.31-.04-.54-.04-.7s.01-.39.04-.7c.4-.53,1.13-1.6,2.21-3.22l4.18-6.07c1.03-1.53,1.89-2.74,2.59-3.64s1.39-1.87,2.08-2.91,1.39-2.01,2.1-2.93Zm-1.93,18.21v-3.51s0-2.78,0-2.78v-7.17c-1.17,1.54-2.8,3.87-4.88,6.99-2.38,3.56-3.79,5.71-4.24,6.45.63-.03,1.1-.04,1.41-.04l5.86.11c.43,0,1.04-.01,1.84-.04Z"/><path class="cls-3" d="m260.14,49.74c.13.21.22.45.28.71-.09.16-.22.26-.41.32-.6.16-1.48.57-2.65,1.24-.27.14-1.1.81-2.48,1.99-.61.43-1.35,1.23-2.22,2.4-1.18,1.57-2.03,2.97-2.54,4.21-.51,1.23-.97,2.85-1.37,4.85-.11.57-.19,1.58-.24,3.02l-.06.79c0,1.83.54,3.65,1.61,5.47,1.07,1.82,2.42,2.73,4.03,2.73.84,0,1.63-.26,2.36-.77s1.31-1.38,1.74-2.61c.43-1.23.64-2.71.64-4.45,0-2.37-.45-4.12-1.36-5.25-.9-1.13-1.99-1.7-3.26-1.7-.38,0-.73.06-1.02.17l-.17.04c-.18,0-.38-.21-.58-.62.37-.24.82-.44,1.35-.6.53-.16.87-.24,1.03-.24.1,0,.75.11,1.95.32l.62.3c.68.21,1.2.46,1.56.75.65.53,1.24,1.19,1.75,1.99.26.41.6,1.26,1.03,2.52.03.09.13.71.3,1.88l-.11,2.14c-.3,1.28-.59,2.18-.86,2.7-.4.78-1.07,1.64-2.01,2.57-.49.47-1.11.86-1.88,1.16-1.08.41-2.23.62-3.44.62-2.31,0-4.27-.92-5.87-2.77s-2.41-4.53-2.41-8.04c0-1.96.3-3.81.9-5.55.6-1.75,1.45-3.35,2.55-4.81.74-.98,1.75-2.04,3.03-3.17s2.49-2.01,3.63-2.63c1.55-.83,3.09-1.38,4.6-1.67Z"/><path class="cls-3" d="m287.45,64.26c0,1.47-.11,2.78-.32,3.92-.39,1.97-.92,3.62-1.61,4.95s-1.5,2.45-2.44,3.36c-.69.67-1.41,1.16-2.19,1.47-.77.31-1.56.46-2.36.46-1.41,0-2.75-.47-4.02-1.41-1.26-.94-2.37-2.5-3.31-4.67-.94-2.17-1.41-4.73-1.41-7.67,0-2.3.29-4.51.86-6.62.57-2.11,1.32-3.75,2.26-4.92.94-1.16,1.86-2,2.78-2.52.92-.51,1.92-.77,3.01-.77,1.53,0,3.01.6,4.44,1.8,1.44,1.2,2.58,3.06,3.44,5.59.57,1.7.86,4.04.86,7.03Zm-3.21-.71c-.01-3.51-.14-5.9-.38-7.16-.4-2.07-1.05-3.52-1.96-4.35-.9-.83-1.96-1.24-3.17-1.24-1.01,0-1.97.33-2.88.99-.9.66-1.53,1.69-1.87,3.08-.58,2.27-.88,5.71-.88,10.33s.45,7.77,1.36,9.59c.9,1.82,2.26,2.73,4.07,2.73,1.24,0,2.31-.39,3.22-1.16s1.55-2.2,1.95-4.3c.39-2.09.58-4.44.57-7.04l-.02-1.48Z"/><path class="cls-3" d="m294.97,68.31h.3l1.67.02,2.87-.11,2.09.07,1.09-.03c1.01,0,1.76.06,2.25.17l.06,1.69c-.89.07-1.6.11-2.14.11-.5,0-1.01-.02-1.52-.06-.69-.04-1.1-.06-1.24-.06l-.9.02c-.26.01-.57.02-.92.02-1.79,0-3.01-.08-3.68-.24l-.04-.62c0-.24.04-.57.13-.99Z"/><path class="cls-3" d="m314.97,56.19l-.71-.39c.9-2.19,1.97-3.72,3.21-4.62s2.69-1.34,4.35-1.34c1.54,0,2.78.34,3.71,1.03,1.38,1.03,2.08,2.19,2.08,3.47,0,1.04-.35,2.09-1.06,3.15-.71,1.06-1.95,2.24-3.72,3.56l.51-.02c1.11,0,2.19.28,3.22.85,1.03.56,1.85,1.44,2.45,2.64s.9,2.47.9,3.85c0,2.76-1.01,5.12-3.03,7.08s-4.59,2.95-7.72,2.95c-2.37,0-4.12-.34-5.25-1.03-.61-.36-.92-.81-.92-1.35,0-.3.12-.57.38-.81.25-.24.56-.36.93-.36.47,0,1.04.26,1.71.77,1.59,1.21,2.96,1.82,4.14,1.82,1.77,0,3.34-.75,4.71-2.24s2.06-3.37,2.06-5.65c0-1.89-.46-3.43-1.38-4.64-.92-1.21-2.09-1.81-3.5-1.81-1.06,0-2.16.5-3.3,1.5l-.51-.86c.71-.61,1.36-1.14,1.93-1.56,1.74-1.27,3.04-2.52,3.9-3.75.61-.89.92-1.66.92-2.34,0-1.13-.4-2.08-1.2-2.86-.8-.78-1.85-1.17-3.15-1.17-2.14,0-4.03,1.38-5.66,4.13Z"/><path class="cls-3" d="m339.93,56.19l-.71-.39c.9-2.19,1.97-3.72,3.21-4.62s2.69-1.34,4.35-1.34c1.54,0,2.78.34,3.71,1.03,1.38,1.03,2.08,2.19,2.08,3.47,0,1.04-.35,2.09-1.06,3.15-.71,1.06-1.95,2.24-3.72,3.56l.51-.02c1.11,0,2.19.28,3.22.85,1.03.56,1.85,1.44,2.45,2.64s.9,2.47.9,3.85c0,2.76-1.01,5.12-3.03,7.08s-4.59,2.95-7.72,2.95c-2.37,0-4.12-.34-5.25-1.03-.61-.36-.92-.81-.92-1.35,0-.3.12-.57.38-.81.25-.24.56-.36.93-.36.47,0,1.04.26,1.71.77,1.59,1.21,2.96,1.82,4.14,1.82,1.77,0,3.34-.75,4.71-2.24s2.06-3.37,2.06-5.65c0-1.89-.46-3.43-1.38-4.64-.92-1.21-2.09-1.81-3.5-1.81-1.06,0-2.16.5-3.3,1.5l-.51-.86c.71-.61,1.36-1.14,1.93-1.56,1.74-1.27,3.04-2.52,3.9-3.75.61-.89.92-1.66.92-2.34,0-1.13-.4-2.08-1.2-2.86-.8-.78-1.85-1.17-3.15-1.17-2.14,0-4.03,1.38-5.66,4.13Z"/><path class="cls-3" d="m369.49,64.09c-1.39-.74-2.33-1.33-2.83-1.78-.71-.61-1.31-1.41-1.79-2.38-.48-.97-.72-1.96-.72-2.98,0-1.77.7-3.37,2.11-4.81,1.41-1.43,3.13-2.15,5.17-2.15,2.3,0,4.12.61,5.46,1.82,1.34,1.21,2.01,2.69,2.01,4.43,0,.97-.2,1.86-.6,2.66-.4.8-.99,1.52-1.78,2.16-.53.44-1.43.99-2.72,1.65,1.96,1.04,3.12,1.71,3.49,2.01.77.6,1.42,1.39,1.95,2.38.53.99.79,2.08.79,3.28,0,2.24-.77,4.13-2.32,5.68-1.55,1.54-3.52,2.31-5.92,2.31s-4.44-.67-5.9-2.02c-1.46-1.35-2.2-3.02-2.2-5,0-1.13.19-2.15.58-3.07.39-.92.99-1.71,1.8-2.37.63-.5,1.76-1.11,3.41-1.82Zm1.05.47c-1.03.54-1.75,1.02-2.16,1.44-.63.6-1.12,1.31-1.48,2.14-.36.83-.54,1.97-.54,3.43,0,1.53.34,2.73,1.01,3.6,1.11,1.44,2.57,2.16,4.37,2.16,1.64,0,2.99-.52,4.04-1.56,1.05-1.04,1.58-2.38,1.58-4.03,0-1.78-.53-3.2-1.6-4.24-1.07-1.04-2.8-2.02-5.22-2.93Zm2.31-2.34c1.2-.66,2.04-1.33,2.51-2.04.77-1.16,1.16-2.47,1.16-3.94,0-1.14-.23-2.12-.68-2.95-.46-.82-1.07-1.41-1.83-1.77-.76-.36-1.59-.54-2.47-.54-1.41,0-2.57.49-3.48,1.46-.91.97-1.37,2.16-1.37,3.58,0,.83.12,1.52.36,2.07.24.55.62,1.06,1.14,1.53.34.31,1.14.88,2.39,1.69.18.11.63.29,1.35.54.21.07.52.19.92.36Z"/><path class="cls-3" d="m394.44,64.09c-1.39-.74-2.33-1.33-2.83-1.78-.71-.61-1.31-1.41-1.79-2.38-.48-.97-.72-1.96-.72-2.98,0-1.77.7-3.37,2.11-4.81,1.41-1.43,3.13-2.15,5.17-2.15,2.3,0,4.12.61,5.46,1.82,1.34,1.21,2.01,2.69,2.01,4.43,0,.97-.2,1.86-.6,2.66-.4.8-.99,1.52-1.78,2.16-.53.44-1.43.99-2.72,1.65,1.96,1.04,3.12,1.71,3.49,2.01.77.6,1.42,1.39,1.95,2.38.53.99.79,2.08.79,3.28,0,2.24-.77,4.13-2.32,5.68-1.55,1.54-3.52,2.31-5.92,2.31s-4.44-.67-5.9-2.02c-1.46-1.35-2.2-3.02-2.2-5,0-1.13.19-2.15.58-3.07.39-.92.99-1.71,1.8-2.37.63-.5,1.76-1.11,3.41-1.82Zm1.05.47c-1.03.54-1.75,1.02-2.16,1.44-.63.6-1.12,1.31-1.48,2.14-.36.83-.54,1.97-.54,3.43,0,1.53.34,2.73,1.01,3.6,1.11,1.44,2.57,2.16,4.37,2.16,1.64,0,2.99-.52,4.04-1.56,1.05-1.04,1.58-2.38,1.58-4.03,0-1.78-.53-3.2-1.6-4.24-1.07-1.04-2.8-2.02-5.22-2.93Zm2.31-2.34c1.2-.66,2.04-1.33,2.51-2.04.77-1.16,1.16-2.47,1.16-3.94,0-1.14-.23-2.12-.68-2.95-.46-.82-1.07-1.41-1.83-1.77-.76-.36-1.59-.54-2.47-.54-1.41,0-2.57.49-3.48,1.46-.91.97-1.37,2.16-1.37,3.58,0,.83.12,1.52.36,2.07.24.55.62,1.06,1.14,1.53.34.31,1.14.88,2.39,1.69.18.11.63.29,1.35.54.21.07.52.19.92.36Z"/></g></g></svg>